<svg width="60" height="60" viewBox="0 0 60 60" fill="none" xmlns="http://www.w3.org/2000/svg">
<g clip-path="url(#clip0_85_30)">
<path d="M58.5714 55.2248H1.42857C0.640212 55.2248 0 54.5861 0 53.7967C0 53.0073 0.640212 52.3682 1.42857 52.3682H58.5714C59.3582 52.3682 60 53.0073 60 53.7967C60 54.5861 59.3587 55.2248 58.5714 55.2248ZM16.2545 50.2253L58.5714 50.1893C59.3582 50.1893 60 49.5475 60 48.7607V6.68456C60 6.10837 59.6513 5.58773 59.118 5.36445C58.5852 5.14964 57.9741 5.26657 57.5667 5.6671L47.182 16.002C46.6355 16.5422 46.6185 17.4195 47.1317 17.9787C47.6116 18.5073 48.1804 19.3528 48.1804 20.4539C48.1804 22.9814 45.2958 25.0364 41.7524 25.0364C38.209 25.0364 35.3238 22.9787 35.3238 20.4539C35.3238 18.6623 36.8249 17.0221 39.1466 16.2671C39.6206 16.1163 39.981 15.7301 40.0952 15.247C40.2127 14.7645 40.0672 14.2523 39.7159 13.902L31.0085 5.19038C30.4519 4.63641 29.545 4.63641 28.9884 5.19038L20.2804 13.9025C19.9286 14.2528 19.7852 14.7645 19.9021 15.2475C20.0196 15.7306 20.3794 16.1195 20.8508 16.2676C23.1709 17.0227 24.6709 18.6629 24.6709 20.4544C24.6709 22.9819 21.7884 25.0369 18.2423 25.0369C14.6974 25.0369 11.8138 22.9793 11.8138 20.4544C11.8138 19.3533 12.3804 18.5052 12.8571 17.9877C13.3751 17.4258 13.3513 16.5539 12.8111 16.0142L2.43704 5.6671C2.02857 5.26128 1.41429 5.14117 0.88254 5.36445C0.348677 5.58509 0 6.10837 0 6.68456V48.7629C0 49.5496 0.640212 50.1914 1.42857 50.1914H15.9429C16.0466 50.2137 16.1481 50.2253 16.2545 50.2253ZM2.85714 10.1301L9.91481 17.1666C9.28571 18.1851 8.95609 19.3041 8.95609 20.4618C8.95609 24.5703 13.1217 27.9031 18.2418 27.9031C23.3619 27.9031 27.5275 24.5645 27.5275 20.4618C27.5275 18.0443 26.1032 15.8438 23.7651 14.4671L30 8.23006L36.2328 14.4703C33.8947 15.8417 32.4746 18.047 32.4746 20.465C32.4746 24.574 36.6402 27.9063 41.7603 27.9063C46.8804 27.9063 51.046 24.5676 51.046 20.465C51.046 19.3015 50.7138 18.1761 50.0778 17.1586L57.145 10.1274V47.3343L16.5889 47.3708C16.491 47.3454 16.3878 47.3343 16.2862 47.3343H2.85714V10.1301ZM8.57143 43.0459V30.5962C11.2233 32.5465 14.5995 33.6237 18.2418 33.6237C19.0317 33.6237 19.6704 32.9787 19.6704 32.1951C19.6704 31.4057 19.0312 30.7666 18.2418 30.7666C14.163 30.7666 10.5169 29.1682 8.24868 26.3904C7.86508 25.9232 7.23016 25.7443 6.66243 25.9539C6.09312 26.1507 5.71376 26.6962 5.71376 27.3004V43.0576C5.71376 43.8443 6.35397 44.4861 7.14233 44.4861C7.93069 44.4861 8.57143 43.838 8.57143 43.0459Z" fill="url(#paint0_linear_85_30)"/>
</g>
<defs>
<linearGradient id="paint0_linear_85_30" x1="30" y1="4.7749" x2="30" y2="55.2248" gradientUnits="userSpaceOnUse">
<stop stop-color="#97A400" stop-opacity="0.49"/>
<stop offset="1" stop-color="#EBEFC0" stop-opacity="0.56"/>
</linearGradient>
<clipPath id="clip0_85_30">
<rect width="60" height="60" fill="white"/>
</clipPath>
</defs>
</svg>
