<?xml version="1.0" encoding="iso-8859-1"?>
<!-- Uploaded to: SVG Repo, www.svgrepo.com, Generator: SVG Repo Mixer Tools -->
<!DOCTYPE svg PUBLIC "-//W3C//DTD SVG 1.1//EN" "http://www.w3.org/Graphics/SVG/1.1/DTD/svg11.dtd">
<svg fill="#000000" version="1.1" id="Capa_1" xmlns="http://www.w3.org/2000/svg" xmlns:xlink="http://www.w3.org/1999/xlink" 
	 width="800px" height="800px" viewBox="0 0 113.4 113.4" xml:space="preserve"
	>
<g>
	<path d="M110.7,104.375H2.7c-1.49,0-2.7-1.207-2.7-2.699s1.21-2.7,2.7-2.7h108c1.487,0,2.7,1.208,2.7,2.7
		S112.188,104.375,110.7,104.375z M30.721,94.926l79.979-0.068c1.487,0,2.7-1.213,2.7-2.7V12.634c0-1.089-0.659-2.073-1.667-2.495
		c-1.007-0.406-2.162-0.185-2.932,0.572L89.174,30.244c-1.033,1.021-1.065,2.679-0.095,3.736c0.907,0.999,1.982,2.597,1.982,4.678
		c0,4.777-5.452,8.661-12.149,8.661s-12.15-3.889-12.15-8.661c0-3.386,2.837-6.486,7.225-7.913c0.896-0.285,1.577-1.015,1.793-1.928
		c0.222-0.912-0.053-1.88-0.717-2.542L58.606,9.81c-1.052-1.047-2.766-1.047-3.818,0L38.33,26.276
		c-0.665,0.662-0.936,1.629-0.715,2.542c0.222,0.913,0.902,1.648,1.793,1.928c4.385,1.427,7.22,4.527,7.22,7.913
		c0,4.777-5.448,8.661-12.15,8.661c-6.7,0-12.15-3.889-12.15-8.661c0-2.081,1.071-3.684,1.972-4.662
		c0.979-1.062,0.934-2.71-0.087-3.73L4.606,10.711c-0.772-0.767-1.933-0.994-2.938-0.572C0.659,10.556,0,11.545,0,12.634v79.528
		c0,1.487,1.21,2.7,2.7,2.7h27.432C30.328,94.904,30.52,94.926,30.721,94.926L30.721,94.926z M5.4,19.146l13.339,13.299
		c-1.189,1.925-1.812,4.04-1.812,6.228c0,7.765,7.873,14.064,17.55,14.064s17.55-6.31,17.55-14.064c0-4.569-2.692-8.728-7.111-11.33
		L56.7,15.555l11.78,11.794c-4.419,2.592-7.103,6.76-7.103,11.33c0,7.766,7.873,14.064,17.55,14.064s17.55-6.31,17.55-14.064
		c0-2.199-0.628-4.326-1.83-6.249l13.357-13.289v70.321l-76.651,0.069c-0.185-0.048-0.38-0.069-0.572-0.069H5.4V19.146z
		 M16.2,81.357v-23.53c5.012,3.686,11.393,5.722,18.277,5.722c1.493,0,2.7-1.219,2.7-2.7c0-1.492-1.208-2.7-2.7-2.7
		c-7.709,0-14.6-3.021-18.887-8.271c-0.725-0.883-1.925-1.221-2.998-0.825c-1.076,0.372-1.793,1.403-1.793,2.545v29.781
		c0,1.487,1.21,2.7,2.7,2.7S16.2,82.854,16.2,81.357z"/>
</g>
</svg>