<!-- icon666.com - MILLIONS vector ICONS FREE --><svg id="Capa_1" enable-background="new 0 0 509.355 509.355" viewBox="0 0 509.355 509.355" xmlns="http://www.w3.org/2000/svg"><g><g id="Layer_2_17_"><g id="E418_Arrow_down_download_downloads"><path d="m255.981 509.354c-141.385-.021-255.983-114.653-255.961-256.038.01-67.873 26.973-132.963 74.961-180.961 101.425-98.502 263.498-96.133 362 5.292 96.472 99.335 96.472 257.374 0 356.708-47.896 48.168-113.072 75.174-181 74.999zm0-492c-130.13 0-236 105.87-236 236s105.87 236 236 236 236-105.87 236-236-105.87-236-236-236z"></path><path d="m255.981 348.924c-5.523 0-10-4.477-10-10v-181.83c0-5.523 4.477-10 10-10s10 4.477 10 10v181.83c0 5.523-4.477 10-10 10z"></path><path d="m255.981 348.924c-2.652-.001-5.195-1.055-7.07-2.93l-53.48-53.48c-3.91-3.905-3.915-10.24-.01-14.15s10.24-3.915 14.15-.01l46.41 46.42 46.41-46.42c3.972-3.837 10.303-3.727 14.14.245 3.743 3.875 3.743 10.02 0 13.895l-53.48 53.48c-1.871 1.883-4.415 2.945-7.07 2.95z"></path></g></g></g></svg>