<svg width="80" height="80" viewBox="0 0 80 80" fill="none" xmlns="http://www.w3.org/2000/svg">
<g id="Frame" clip-path="url(#clip0_219_126)">
<path id="Vector" d="M40 78.9743C61.5249 78.9743 78.9743 61.5249 78.9743 40C78.9743 18.475 61.5249 1.02563 40 1.02563C18.475 1.02563 1.02563 18.475 1.02563 40C1.02563 61.5249 18.475 78.9743 40 78.9743Z" stroke="#4556AE" stroke-width="1.02564"/>
<path id="Vector_2" d="M41.6513 55.6402V40.3633H45.9611L46.6345 34.4131H41.6513V30.7145C41.6513 28.9456 42.0552 27.8199 44.0755 27.8199H46.7691V22.3524C46.3652 22.3524 44.749 22.1916 42.8634 22.1916C39.0924 22.1916 36.5334 24.9253 36.5334 30.0712V34.4131H32.2236V40.3633H36.5334V55.6402H41.6513Z" fill="#4556AE"/>
</g>
<defs>
<clipPath id="clip0_219_126">
<rect width="80" height="80" fill="white"/>
</clipPath>
</defs>
</svg>
