<svg width="80" height="80" viewBox="0 0 80 80" fill="none" xmlns="http://www.w3.org/2000/svg">
<g id="Frame" clip-path="url(#clip0_219_121)">
<path id="Vector" d="M40 78.9744C61.5249 78.9744 78.9744 61.5249 78.9744 40C78.9744 18.475 61.5249 1.02563 40 1.02563C18.475 1.02563 1.02563 18.475 1.02563 40C1.02563 61.5249 18.475 78.9744 40 78.9744Z" stroke="url(#paint0_linear_219_121)" stroke-width="1.02564"/>
<path id="Vector_2" d="M47.7011 21.9651H32.2987C26.9358 21.9651 22.5641 26.2511 22.5641 31.5087V46.609C22.5641 51.8667 26.9358 56.1526 32.2987 56.1526H47.7011C53.0642 56.1526 57.4357 51.8667 57.4357 46.609V31.5087C57.4611 26.2511 53.0894 21.9651 47.7011 21.9651ZM53.9028 31.5087V46.609C53.9028 49.9481 51.1325 52.664 47.7266 52.664H32.2987C28.8929 52.664 26.1224 49.9481 26.1224 46.609V31.5087C26.1224 28.1697 28.8929 25.4538 32.2987 25.4538H47.7011C51.1071 25.4538 53.9028 28.1697 53.9028 31.5087Z" fill="url(#paint1_linear_219_121)"/>
<path id="Vector_3" d="M40 30.1382C34.9676 30.1382 30.8755 34.1499 30.8755 39.0589C30.8755 43.9926 34.9676 48.0045 40 48.0045C45.0324 48.0045 49.1245 43.9926 49.1245 39.0589C49.1245 34.1499 45.0324 30.1382 40 30.1382ZM40 44.5159C36.95 44.5159 34.4336 42.0738 34.4336 39.0837C34.4336 36.0935 36.9245 33.6267 40 33.6267C43.0501 33.6267 45.5662 36.0687 45.5662 39.0837C45.5662 42.0738 43.0755 44.5159 40 44.5159Z" fill="url(#paint2_linear_219_121)"/>
<path id="Vector_4" d="M49.2256 27.5971C48.5647 27.5971 47.9294 27.8463 47.4718 28.3198C47.0143 28.7682 46.7347 29.3912 46.7347 30.0392C46.7347 30.687 46.9889 31.3099 47.4718 31.7583C47.9294 32.207 48.5647 32.481 49.2256 32.481C49.8865 32.481 50.5218 32.232 50.9795 31.7583C51.4369 31.3099 51.7165 30.687 51.7165 30.0392C51.7165 29.3912 51.4623 28.7682 50.9795 28.3198C50.5473 27.8463 49.8865 27.5971 49.2256 27.5971Z" fill="url(#paint3_linear_219_121)"/>
</g>
<defs>
<linearGradient id="paint0_linear_219_121" x1="80" y1="8.20512" x2="13.3333" y2="80" gradientUnits="userSpaceOnUse">
<stop stop-color="#CF05D3"/>
<stop offset="1" stop-color="#FCC70D"/>
</linearGradient>
<linearGradient id="paint1_linear_219_121" x1="57.4359" y1="25.4716" x2="28.9936" y2="56.7149" gradientUnits="userSpaceOnUse">
<stop stop-color="#CF05D3"/>
<stop offset="1" stop-color="#FCC70D"/>
</linearGradient>
<linearGradient id="paint2_linear_219_121" x1="49.1245" y1="31.9707" x2="34.2628" y2="48.3188" gradientUnits="userSpaceOnUse">
<stop stop-color="#CF05D3"/>
<stop offset="1" stop-color="#FCC70D"/>
</linearGradient>
<linearGradient id="paint3_linear_219_121" x1="51.7165" y1="28.098" x2="47.6533" y2="32.5614" gradientUnits="userSpaceOnUse">
<stop stop-color="#CF05D3"/>
<stop offset="1" stop-color="#FCC70D"/>
</linearGradient>
<clipPath id="clip0_219_121">
<rect width="80" height="80" fill="white"/>
</clipPath>
</defs>
</svg>
