<svg width="37" height="35" viewBox="0 0 37 35" fill="none" xmlns="http://www.w3.org/2000/svg">
<g id="Frame">
<path id="Vector" d="M33.705 16.5133L32.2928 13.625C32.1412 13.3149 31.8014 13.1148 31.426 13.1148H29.0857C28.5624 13.1148 28.1382 13.4979 28.1382 13.9706V15.3197H27.4102V14.2097C27.4102 13.737 26.986 13.3538 26.4627 13.3538H23.9399V11.0186C23.9399 10.5459 23.5157 10.1628 22.9923 10.1628H18.331V9.34785H22.9923C23.5157 9.34785 23.9399 8.96468 23.9399 8.49204C23.9399 8.01929 23.5157 7.63623 22.9923 7.63623H11.7748C11.2515 7.63623 10.8273 8.01929 10.8273 8.49204C10.8273 8.96468 11.2515 9.34785 11.7748 9.34785H16.4362V10.1628H11.7748C11.2515 10.1628 10.8273 10.5459 10.8273 11.0186V11.7299H8.74848C8.22518 11.7299 7.80092 12.1131 7.80092 12.5858V17.1783H6.49911V12.5858C6.49911 12.1131 6.07486 11.7299 5.55156 11.7299C5.02826 11.7299 4.604 12.1132 4.604 12.5858V23.4827C4.604 23.9554 5.02826 24.3385 5.55156 24.3385C6.07486 24.3385 6.49911 23.9554 6.49911 23.4827V18.8899H7.80092V23.4827C7.80092 23.9554 8.22518 24.3385 8.74848 24.3385H12.4299L16.1706 27.164C16.3412 27.2928 16.5562 27.3634 16.7786 27.3634H26.4628C26.9861 27.3634 27.4103 26.9803 27.4103 26.5075V24.1747H28.1383V25.5237C28.1383 25.9964 28.5625 26.3795 29.0859 26.3795H31.4261C31.8015 26.3795 32.1413 26.1795 32.293 25.8694L33.7051 22.981C33.7582 22.8722 33.7858 22.7544 33.7858 22.6354V16.859C33.7858 16.74 33.7582 16.6221 33.705 16.5133ZM31.8907 22.455L30.8088 24.668H30.0334V23.3189C30.0334 22.8462 29.6092 22.463 29.0859 22.463H26.4628C25.9395 22.463 25.5152 22.8462 25.5152 23.3189V25.6519H17.1224L13.3818 22.8263C13.2112 22.6974 12.9961 22.627 12.7738 22.627H9.69602V13.4416H11.7748C12.2982 13.4416 12.7224 13.0585 12.7224 12.5858V11.8745H22.0449V14.2099C22.0449 14.6827 22.4691 15.0657 22.9925 15.0657H25.5152V16.1758C25.5152 16.6485 25.9395 17.0315 26.4628 17.0315H29.0859C29.6092 17.0315 30.0334 16.6485 30.0334 16.1758V14.8265H30.8088L31.8907 17.0396V22.455Z" fill="#858585"/>
</g>
</svg>
