<svg width="80" height="80" viewBox="0 0 80 80" fill="none" xmlns="http://www.w3.org/2000/svg">
<g id="Frame" clip-path="url(#clip0_219_132)">
<path id="Vector" d="M40 78.75C61.401 78.75 78.75 61.401 78.75 40C78.75 18.599 61.401 1.25 40 1.25C18.599 1.25 1.25 18.599 1.25 40C1.25 61.401 18.599 78.75 40 78.75Z" stroke="#60A1DE" stroke-width="1.25"/>
<path id="Vector_2" d="M34.3117 46.1837L33.8292 53.835C34.5152 53.835 34.8092 53.5007 35.1635 53.0982L38.3742 49.611L45.0297 55.1545C46.2507 55.9255 47.11 55.523 47.4417 53.8777L51.8057 30.6072C52.1902 28.5592 51.1502 27.754 49.9667 28.2595L24.2946 39.4322C22.546 40.2032 22.5686 41.3172 23.9932 41.8227L30.5582 44.1445L45.8062 33.2975C46.5222 32.7577 47.178 33.0575 46.6427 33.5972L34.3117 46.1837Z" fill="#60A1DE"/>
</g>
<defs>
<clipPath id="clip0_219_132">
<rect width="80" height="80" fill="white"/>
</clipPath>
</defs>
</svg>
