<svg width="24" height="24" viewBox="0 0 24 24" fill="none" xmlns="http://www.w3.org/2000/svg">
<path d="M12.0097 14.3652C12.0097 14.3652 11.7367 15.0664 11.7383 15.0697L12.1722 15.6855H13.1293L13.5632 15.0697C13.5599 15.0583 13.2918 14.3652 13.2918 14.3652C13.2601 14.3701 12.0414 14.3701 12.0097 14.3652Z" fill="white"/>
<path d="M9.54489 10.2727C10.1031 11.9058 11.1545 13.1473 12.6511 13.1473C14.0925 13.1473 15.1593 11.9237 15.7361 10.293C16.9004 9.11892 16.6258 8.24142 16.3569 7.82217C16.989 4.79479 15.0561 3.08691 12.5406 3.08691C8.03201 3.08691 8.81851 8.02692 8.81851 8.02692C8.82339 8.02773 8.82907 8.02773 8.83395 8.02854C8.62757 8.49329 8.56664 9.27492 9.54489 10.2727ZM11.4274 6.60504L11.0984 7.8311C12.708 7.34035 12.9241 7.0706 13.1776 6.88616C13.4408 6.69523 13.6634 6.50104 13.8438 6.32473C13.9267 6.47423 14.0315 6.61073 14.1509 6.73423C14.2704 6.85935 14.4467 5.59916 14.4467 5.59916C14.4467 5.59916 14.892 6.36454 14.9537 6.61235C14.9976 6.78785 15.2779 7.49798 15.4298 7.56298C15.3729 9.90704 14.3216 12.3567 12.6511 12.3567C11.0951 12.3567 10.0763 10.232 9.89751 8.04642C10.3241 8.02042 11.4274 6.60504 11.4274 6.60504Z" fill="white"/>
<path d="M20.735 16.897C19.7998 14.4367 17.6646 13.4211 17.6361 13.4073L15.3676 12.572L15.0678 13.3033L15.7008 13.5365L13.3925 21.1536L13.1008 16.039H12.2021L11.9145 21.0602L9.63139 13.5259L10.2383 13.3033L9.93527 12.5728L7.69439 13.3967L7.66595 13.4089C7.63752 13.4227 5.50227 14.4383 4.56708 16.8986C4.37695 17.3999 4.23639 17.9613 4.17383 18.5861C6.18477 21.0269 9.23245 22.5853 12.6441 22.5869C12.649 22.5869 12.6539 22.5869 12.6596 22.5869C12.844 22.5869 13.0268 22.582 13.2088 22.5723C13.2129 22.5723 13.217 22.5723 13.221 22.5723C16.4036 22.409 19.2286 20.892 21.1291 18.5845C21.0657 17.9597 20.926 17.3975 20.735 16.897ZM14.8858 19.4255C14.911 19.4279 16.506 19.6148 17.7475 18.9745V19.4677C16.8106 19.8439 15.847 19.9105 15.2913 19.9105C15.1044 19.9105 14.9646 19.9024 14.8858 19.8975V19.4255Z" fill="white"/>
</svg>
