<svg width="80" height="80" viewBox="0 0 80 80" fill="none" xmlns="http://www.w3.org/2000/svg">
<g id="Frame" clip-path="url(#clip0_219_129)">
<path id="Vector" d="M40 78.9744C61.5249 78.9744 78.9744 61.5249 78.9744 40C78.9744 18.475 61.5249 1.02563 40 1.02563C18.475 1.02563 1.02563 18.475 1.02563 40C1.02563 61.5249 18.475 78.9744 40 78.9744Z" stroke="#4E7ACF" stroke-width="1.02564"/>
<path id="Vector_2" fill-rule="evenodd" clip-rule="evenodd" d="M50.8108 42.511C51.9013 43.5698 53.0457 44.5618 54.0149 45.728C54.4457 46.2507 54.8496 46.7733 55.1591 47.3766C55.6035 48.2345 55.1996 49.1727 54.4324 49.2129H49.6531C48.4145 49.3202 47.4453 48.8242 46.6106 47.9797C45.9509 47.3095 45.3317 46.5992 44.699 45.9022C44.4432 45.6207 44.1604 45.3526 43.8373 45.138C43.1911 44.7227 42.6258 44.8433 42.2488 45.5268C41.8718 46.2105 41.7776 46.9746 41.7507 47.7518C41.6968 48.8777 41.3604 49.1594 40.2295 49.2129C37.8197 49.3202 35.531 48.9581 33.3905 47.7518C31.5193 46.6796 30.0654 45.1783 28.7864 43.4626C26.3228 40.1385 24.4381 36.4792 22.7284 32.7262C22.3513 31.8818 22.6207 31.426 23.563 31.4125C25.1247 31.3858 26.6728 31.3858 28.2344 31.4125C28.8672 31.426 29.2845 31.7879 29.5267 32.3776C30.3749 34.4418 31.3981 36.3988 32.6904 38.2217C33.0406 38.7042 33.3905 39.1869 33.8886 39.5354C34.4406 39.9106 34.858 39.7899 35.1271 39.1735C35.2888 38.7848 35.3696 38.3692 35.3965 37.9536C35.5175 36.5194 35.531 35.0853 35.3157 33.6511C35.1811 32.753 34.6828 32.1766 33.7809 32.0158C33.3232 31.9354 33.3905 31.761 33.6194 31.5065C34.0502 31.0507 34.4137 30.7692 35.1271 30.7692H40.5257C41.3737 30.93 41.5622 31.3188 41.6835 32.1633V38.128C41.6699 38.463 41.8449 39.4414 42.4508 39.656C42.922 39.8168 43.2451 39.4281 43.5278 39.1331C44.8201 37.7659 45.7356 36.1575 46.5702 34.482C46.9337 33.7448 47.2568 32.9809 47.553 32.2168C47.7819 31.6539 48.1319 31.3723 48.778 31.3858H53.9745C54.1226 31.3858 54.2843 31.3858 54.4324 31.4125C55.3072 31.56 55.5497 31.9354 55.2804 32.7932C54.8496 34.1335 54.0285 35.2461 53.2207 36.3586C52.3591 37.5516 51.4301 38.7042 50.5686 39.9106C49.7608 41.0098 49.8281 41.5594 50.8108 42.511Z" fill="#4E7ACF"/>
</g>
<defs>
<clipPath id="clip0_219_129">
<rect width="80" height="80" fill="white"/>
</clipPath>
</defs>
</svg>
