<svg width="24" height="24" viewBox="0 0 24 24" fill="none" xmlns="http://www.w3.org/2000/svg">
<path d="M16.3163 14.3375C16.2798 14.3229 14.9721 13.6727 14.7383 13.5924C14.6433 13.5558 14.541 13.5266 14.4314 13.5266C14.2561 13.5266 14.1027 13.6143 13.9858 13.7896C13.8543 13.9868 13.4597 14.4471 13.3355 14.5859C13.3209 14.6078 13.299 14.6224 13.2844 14.6224C13.2698 14.6224 13.0725 14.542 13.0068 14.5128C11.5967 13.8992 10.5301 12.4308 10.384 12.1825C10.362 12.1459 10.362 12.1313 10.362 12.1313C10.3693 12.1094 10.4132 12.0656 10.4424 12.0437C10.5155 11.9706 10.5885 11.8829 10.6689 11.788C10.7054 11.7442 10.7419 11.7003 10.7712 11.6638C10.8808 11.5396 10.9246 11.4373 10.983 11.3278L11.0123 11.2693C11.1511 10.999 11.0342 10.7653 10.9977 10.6922C10.9684 10.6338 10.4132 9.2896 10.3547 9.15081C10.2159 8.81477 10.026 8.65405 9.76296 8.65405C9.74104 8.65405 9.76296 8.65405 9.66067 8.66136C9.53647 8.66866 8.86433 8.75633 8.57209 8.93895C8.25794 9.1362 7.72461 9.77175 7.72461 10.8821C7.72461 11.8829 8.36022 12.8253 8.63054 13.1906C8.63785 13.1979 8.65246 13.2198 8.66707 13.2417C9.71181 14.7685 11.0123 15.9008 12.3346 16.4268C13.6059 16.9308 14.2049 16.9893 14.5483 16.9893C14.6944 16.9893 14.804 16.9747 14.9063 16.9674L14.9721 16.9601C15.4104 16.9235 16.3748 16.4195 16.594 15.8131C16.7693 15.331 16.8131 14.805 16.6963 14.6151C16.6232 14.4909 16.4917 14.4252 16.3163 14.3375Z" fill="#69A94B"/>
<path d="M12.1599 4C7.28684 4 3.31974 7.9375 3.31974 12.7735C3.31974 14.3369 3.73617 15.8709 4.53251 17.2078L3.01289 21.6859C2.98366 21.7662 3.00558 21.8612 3.06403 21.9269C3.10786 21.9708 3.16631 22 3.23206 22C3.25398 22 3.28321 22 3.30512 21.9927L7.97359 20.5097C9.25212 21.1891 10.6987 21.5544 12.1599 21.5544C17.0329 21.5544 21 17.6169 21 12.7808C21 7.93019 17.0329 4 12.1599 4ZM12.1599 19.7208C10.7864 19.7208 9.44938 19.3263 8.30966 18.5739C8.27313 18.5519 8.2293 18.5373 8.17816 18.5373C8.15624 18.5373 8.12701 18.5446 8.1051 18.5519L5.76721 19.2971L6.51972 17.069C6.54164 16.9959 6.53433 16.9156 6.48319 16.8571C5.61379 15.6664 5.14621 14.2565 5.14621 12.7881C5.14621 8.96023 8.28774 5.84091 12.1526 5.84091C16.0174 5.84091 19.1516 8.96023 19.1516 12.7881C19.1589 16.6015 16.0174 19.7208 12.1599 19.7208Z" fill="#69A94B"/>
</svg>
