<svg width="80" height="80" viewBox="0 0 80 80" fill="none" xmlns="http://www.w3.org/2000/svg">
<g id="Frame" clip-path="url(#clip0_219_135)">
<path id="Vector" d="M40 78.75C61.401 78.75 78.75 61.401 78.75 40C78.75 18.599 61.401 1.25 40 1.25C18.599 1.25 1.25 18.599 1.25 40C1.25 61.401 18.599 78.75 40 78.75Z" stroke="#69A94B" stroke-width="1.25"/>
<path id="Vector_2" d="M50.173 41.4045C50.097 41.3742 47.3795 40.028 46.8937 39.8615C46.6962 39.786 46.4837 39.7252 46.256 39.7252C45.8915 39.7252 45.5727 39.907 45.3297 40.27C45.0565 40.6785 44.2367 41.6315 43.9787 41.9187C43.9482 41.9642 43.9027 41.9945 43.8725 41.9945C43.842 41.9945 43.432 41.828 43.2955 41.7675C40.3652 40.4967 38.1487 37.4562 37.845 36.942C37.7995 36.8662 37.7995 36.836 37.7995 36.836C37.8147 36.7907 37.9057 36.7 37.9665 36.6545C38.1182 36.5032 38.2702 36.3217 38.4372 36.1252C38.513 36.0342 38.589 35.9435 38.6497 35.868C38.8775 35.6107 38.9685 35.399 39.09 35.1722L39.1507 35.051C39.4392 34.4915 39.1962 34.0072 39.1202 33.856C39.0595 33.735 37.9057 30.9517 37.7842 30.6642C37.4957 29.9685 37.101 29.6355 36.5545 29.6355C36.509 29.6355 36.5545 29.6355 36.342 29.6507C36.084 29.6657 34.6872 29.8475 34.0797 30.2255C33.427 30.634 32.3187 31.95 32.3187 34.2495C32.3187 36.3217 33.6395 38.2732 34.2012 39.0295C34.2165 39.0447 34.2467 39.09 34.2772 39.1355C36.4482 42.297 39.1507 44.6417 41.8987 45.7307C44.5405 46.7745 45.7852 46.8955 46.499 46.8955C46.8025 46.8955 47.0302 46.8652 47.2427 46.8503L47.3795 46.835C48.2905 46.7595 50.2945 45.7157 50.75 44.4602C51.1142 43.4617 51.2055 42.3725 50.9625 41.9792C50.8107 41.7222 50.5372 41.586 50.173 41.4045Z" fill="#69A94B"/>
<path id="Vector_3" d="M41.535 20C31.4083 20 23.1644 28.1535 23.1644 38.1675C23.1644 41.4048 24.0298 44.5815 25.6848 47.3497L22.5268 56.6227C22.4661 56.789 22.5116 56.9857 22.6331 57.1217C22.7242 57.2125 22.8456 57.273 22.9823 57.273C23.0278 57.273 23.0885 57.273 23.1341 57.258L32.8355 54.1872C35.4923 55.594 38.4985 56.3503 41.535 56.3503C51.6615 56.3503 59.9053 48.1968 59.9053 38.1828C59.9053 28.1383 51.6615 20 41.535 20ZM41.535 52.5535C38.6808 52.5535 35.9023 51.7365 33.5338 50.1785C33.458 50.133 33.3668 50.1027 33.2605 50.1027C33.215 50.1027 33.1543 50.118 33.1088 50.133L28.2505 51.676L29.8143 47.0622C29.8598 46.911 29.8445 46.7447 29.7383 46.6237C27.9318 44.158 26.96 41.2385 26.96 38.1978C26.96 30.2713 33.4883 23.812 41.5198 23.812C49.551 23.812 56.0643 30.2713 56.0643 38.1978C56.0795 46.0943 49.551 52.5535 41.535 52.5535Z" fill="#69A94B"/>
</g>
<defs>
<clipPath id="clip0_219_135">
<rect width="80" height="80" fill="white"/>
</clipPath>
</defs>
</svg>
