<svg width="80" height="80" viewBox="0 0 80 80" fill="none" xmlns="http://www.w3.org/2000/svg">
<g id="Frame" clip-path="url(#clip0_219_118)">
<path id="Vector" d="M40 78.9743C61.5249 78.9743 78.9743 61.5249 78.9743 40C78.9743 18.475 61.5249 1.02563 40 1.02563C18.475 1.02563 1.02563 18.475 1.02563 40C1.02563 61.5249 18.475 78.9743 40 78.9743Z" stroke="#D1301D" stroke-width="1.02564"/>
<path id="Vector_2" d="M54.0744 30.8911C53.2391 29.3077 52.3317 29.0193 50.4927 28.9038C48.6478 28.7756 44.0143 28.718 40.0059 28.718C35.9856 28.718 31.346 28.7756 29.5073 28.9038C27.6683 29.0193 26.7608 29.3077 25.9194 30.8911C25.0601 32.4745 24.6154 35.1988 24.6154 39.9936C24.6154 40 24.6154 40 24.6154 40C24.6154 40.0064 24.6154 40.0064 24.6154 40.0064V40.0127C24.6154 44.7885 25.0601 47.5321 25.9194 49.0962C26.7608 50.6796 27.6683 50.968 29.5073 51.1026C31.3522 51.2181 35.9856 51.2821 40.0059 51.2821C44.0205 51.2821 48.6539 51.2115 50.4988 51.1026C52.3438 50.968 53.2512 50.6796 54.0806 49.0962C54.9458 47.5321 55.3846 44.7885 55.3846 40.0127C55.3846 40.0127 55.3846 40.0064 55.3846 40V39.9936C55.3846 35.1988 54.9458 32.4745 54.0744 30.8911ZM36.1538 46.1538V33.8462L45.7692 40L36.1538 46.1538Z" fill="#D1301D"/>
</g>
<defs>
<clipPath id="clip0_219_118">
<rect width="80" height="80" fill="white"/>
</clipPath>
</defs>
</svg>
